<svg width="21" height="25" viewBox="0 0 21 25" fill="none" xmlns="http://www.w3.org/2000/svg">
<path d="M17.4093 13.0131C17.422 12.0752 17.6828 11.1556 18.1676 10.3398C18.6524 9.52407 19.3453 8.83868 20.1819 8.34742C19.6504 7.62244 18.9493 7.02581 18.1341 6.60492C17.319 6.18402 16.4124 5.95046 15.4862 5.92277C13.5106 5.7247 11.5953 7.052 10.5884 7.052C9.56228 7.052 8.01217 5.94244 6.34293 5.97529C5.26328 6.00862 4.21108 6.3085 3.28885 6.8457C2.36662 7.3829 1.6058 8.1391 1.08053 9.04063C-1.19491 12.8033 0.502388 18.333 2.682 21.3746C3.77242 22.8639 5.04693 24.5275 6.71459 24.4685C8.34649 24.4039 8.95608 23.4745 10.9258 23.4745C12.8775 23.4745 13.4493 24.4685 15.1507 24.431C16.9019 24.4039 18.0052 22.9351 19.0574 21.4317C19.841 20.3704 20.4439 19.1975 20.8439 17.9564C19.8265 17.5455 18.9584 16.8576 18.3476 15.9785C17.7368 15.0995 17.4105 14.0681 17.4093 13.0131ZM14.1955 3.92258C15.1503 2.82782 15.6207 1.42068 15.5068 0C14.0481 0.146361 12.7007 0.812257 11.7331 1.86501C11.2599 2.37929 10.8975 2.97759 10.6666 3.62572C10.4357 4.27384 10.3409 4.95908 10.3874 5.64225C11.117 5.64943 11.8389 5.49838 12.4985 5.20049C13.1582 4.90259 13.7383 4.46573 14.1955 3.92258Z" fill="white"/>
</svg>
