<svg width="40" height="40" viewBox="0 0 40 40" fill="none" xmlns="http://www.w3.org/2000/svg">
<rect width="40" height="40" rx="10" fill="#6D51FF"/>
<path fill-rule="evenodd" clip-rule="evenodd" d="M10.3258 10.0312C9.09661 10.2135 8.027 10.9689 7.46141 12.0543C7.29237 12.3787 7.07517 12.9641 7.11444 12.9894C7.90855 13.5019 19.9483 20.7701 20.0032 20.7701C20.058 20.7701 32.0978 13.5019 32.8919 12.9894C32.9311 12.9641 32.7141 12.3788 32.5451 12.0543C32.0612 11.1246 31.2319 10.4536 30.1605 10.1245L29.7809 10.008L20.181 10.0007C14.901 9.99666 10.4661 10.0104 10.3258 10.0312ZM7 21.4961C7 25.9508 7.01026 26.5643 7.08015 26.904C7.24163 27.6892 7.54857 28.2615 8.11746 28.8379C8.73796 29.4665 9.48523 29.8362 10.3552 29.9447C10.9459 30.0184 29.0605 30.0184 29.6512 29.9447C31.0223 29.7736 32.2136 28.8605 32.7287 27.5857C33.0114 26.8859 33.0097 26.0147 32.9948 20.482L32.9809 16.3883L26.8857 20.0868C23.5333 22.1209 20.6912 23.8294 20.5698 23.8833C20.2713 24.0161 19.7351 24.0161 19.4365 23.8834C19.3152 23.8294 16.5107 22.1438 13.2043 20.1374C9.89798 18.1311 7.14943 16.4664 7.09641 16.4382C7.00203 16.3879 7 16.494 7 21.4961Z" fill="white"/>
</svg>
