<svg width="25" height="25" viewBox="0 0 25 25" fill="none" xmlns="http://www.w3.org/2000/svg">
<path d="M10.6062 12.6954C10.7745 12.8637 10.7745 13.1365 10.6062 13.3047L5.25254 18.6584C4.916 18.9949 4.916 19.5406 5.25254 19.8771L6.12305 20.7476C6.45959 21.0841 7.00522 21.0841 7.34176 20.7476L12.6954 15.394C12.8637 15.2257 13.1365 15.2257 13.3048 15.394L18.6582 20.7474C18.9948 21.084 19.5404 21.084 19.877 20.7474L20.7475 19.8769C21.084 19.5404 21.084 18.9947 20.7475 18.6582L15.394 13.3047C15.2257 13.1365 15.2257 12.8637 15.394 12.6954L20.7476 7.3418C21.0841 7.00526 21.0841 6.45962 20.7476 6.12309L19.8771 5.25258C19.5405 4.91604 18.9949 4.91604 18.6584 5.25258L13.3048 10.6062C13.1365 10.7744 12.8637 10.7744 12.6954 10.6062L7.34162 5.2524C7.00509 4.91587 6.45945 4.91587 6.12291 5.2524L5.2524 6.12291C4.91587 6.45945 4.91587 7.00508 5.2524 7.34162L10.6062 12.6954Z" fill="#6D51FF"/>
</svg>
