<svg width="230" height="103" viewBox="0 0 230 103" fill="none" xmlns="http://www.w3.org/2000/svg">
<path d="M30.2111 45.8613C27.2026 45.8613 24.2617 46.7744 21.7603 48.4852C19.2588 50.196 17.3092 52.6276 16.1579 55.4725C15.0066 58.3174 14.7054 61.4479 15.2923 64.4681C15.8792 67.4882 17.3279 70.2624 19.4552 72.4398C21.5825 74.6172 24.2929 76.1001 27.2435 76.7008C30.1942 77.3016 33.2526 76.9933 36.0321 75.8148C38.8116 74.6364 41.1872 72.6409 42.8586 70.0805C44.53 67.5201 45.4221 64.51 45.4221 61.4306H37.8166C37.8166 62.9703 37.3706 64.4754 36.5348 65.7556C35.6991 67.0358 34.5113 68.0335 33.1216 68.6227C31.7319 69.212 30.2026 69.3661 28.7273 69.0657C27.252 68.7654 25.8968 68.0239 24.8332 66.9352C23.7695 65.8465 23.0451 64.4594 22.7517 62.9494C22.4582 61.4393 22.6088 59.874 23.1845 58.4516C23.7601 57.0291 24.7349 55.8133 25.9857 54.9579C27.2364 54.1025 28.7068 53.646 30.2111 53.646V45.8613Z" fill="url(#paint0_linear_3171_12674)"/>
<path d="M51.7012 62.1014V26H59.1166V62.1014H51.7012Z" fill="#1C1C1C"/>
<path d="M102.462 62.1014L91.7194 35.9255H99.3725L106.442 53.747L113.775 35.9255H120.906L110.115 62.1014H102.462Z" fill="#1C1C1C"/>
<path d="M153.223 62.1014V26H160.638V62.1014H153.223Z" fill="#1C1C1C"/>
<path fill-rule="evenodd" clip-rule="evenodd" d="M135.927 62.4907C133.012 62.4907 130.445 61.9068 128.226 60.7391C126.04 59.5714 124.344 57.9821 123.14 55.971C121.936 53.9275 121.334 51.6083 121.334 49.0135C121.334 46.3861 121.92 44.0669 123.093 42.0559C124.297 40.0124 125.929 38.423 127.989 37.2878C130.049 36.1201 132.378 35.5362 134.976 35.5362C137.48 35.5362 139.73 36.0876 141.726 37.1905C143.754 38.2609 145.355 39.8178 146.527 41.8613C147.7 43.8723 148.286 46.2888 148.286 49.1108C148.286 49.4027 148.27 49.7433 148.238 50.1325C148.207 50.4893 148.175 50.8299 148.143 51.1542H128.794C128.943 51.8511 129.182 52.4998 129.51 53.1004C130.144 54.1708 131.015 54.9979 132.124 55.5818C133.265 56.1332 134.596 56.4089 136.117 56.4089C137.48 56.4089 138.668 56.1981 139.682 55.7764C140.728 55.3547 141.679 54.7222 142.534 53.8789L146.48 58.2578C145.307 59.6201 143.834 60.6743 142.059 61.4203C140.284 62.1339 138.24 62.4907 135.927 62.4907ZM138.351 42.1532C139.302 42.7046 140.047 43.4831 140.585 44.4886C140.943 45.156 141.182 45.9021 141.302 46.7267H128.708C128.832 45.9159 129.067 45.1861 129.415 44.5373C129.953 43.4993 130.698 42.7046 131.649 42.1532C132.631 41.5694 133.756 41.2774 135.024 41.2774C136.291 41.2774 137.401 41.5694 138.351 42.1532Z" fill="#1C1C1C"/>
<path d="M179.881 62.4907C176.871 62.4907 174.526 61.7122 172.846 60.1553C171.167 58.5659 170.327 56.2143 170.327 53.1004V42.3478H166.381V36.5093H170.327V30.1356H177.742V36.5093H184.112V42.3478H177.742V53.0031C177.742 54.1059 178.027 54.9655 178.598 55.5818C179.168 56.1656 179.945 56.4576 180.927 56.4576C182.1 56.4576 183.098 56.1332 183.922 55.4845L185.918 60.8364C185.158 61.3878 184.239 61.8095 183.161 62.1014C182.115 62.3609 181.022 62.4907 179.881 62.4907Z" fill="#1C1C1C"/>
<path d="M192.849 71.9296C191.518 71.9296 190.203 71.7188 188.904 71.2971C187.604 70.8754 186.543 70.2916 185.719 69.5455L188.428 64.1449C188.999 64.6639 189.648 65.0694 190.377 65.3613C191.138 65.6532 191.882 65.7992 192.611 65.7992C193.657 65.7992 194.481 65.5397 195.083 65.0207C195.717 64.5342 196.287 63.707 196.794 62.5393L196.885 62.32L185.814 35.9255H193.467L200.646 53.7026L207.87 35.9255H215L203.449 63.707C202.625 65.8154 201.674 67.4696 200.597 68.6698C199.551 69.8699 198.379 70.7132 197.079 71.1998C195.812 71.6863 194.402 71.9296 192.849 71.9296Z" fill="#1C1C1C"/>
<path fill-rule="evenodd" clip-rule="evenodd" d="M78.6905 62.4907C75.775 62.4907 73.2081 61.9068 70.9899 60.7391C68.8033 59.5714 67.1079 57.9821 65.9037 55.971C64.6995 53.9275 64.0974 51.6083 64.0974 49.0135C64.0974 46.3861 64.6836 44.0669 65.8561 42.0559C67.0603 40.0124 68.6924 38.423 70.7522 37.2878C72.812 36.1201 75.1412 35.5362 77.7398 35.5362C80.2433 35.5362 82.4932 36.0876 84.4897 37.1905C86.5178 38.2609 88.1182 39.8178 89.2907 41.8613C90.4632 43.8723 91.0495 46.2888 91.0495 49.1108C91.0495 49.4027 91.0336 49.7433 91.0019 50.1325C90.9703 50.4893 90.9386 50.8299 90.9069 51.1542H71.5574C71.7068 51.8511 71.9454 52.4998 72.2733 53.1004C72.9071 54.1708 73.7786 54.9979 74.8877 55.5818C76.0285 56.1332 77.3595 56.4089 78.8806 56.4089C80.2433 56.4089 81.4316 56.1981 82.4457 55.7764C83.4915 55.3547 84.4422 54.7222 85.2978 53.8789L89.2431 58.2578C88.0706 59.6201 86.5971 60.6743 84.8224 61.4203C83.0478 62.1339 81.0038 62.4907 78.6905 62.4907ZM81.1147 42.1532C82.0654 42.7046 82.8101 43.4831 83.3489 44.4886C83.7065 45.156 83.9454 45.9021 84.0656 46.7267H71.4719C71.5952 45.9159 71.8306 45.1861 72.1782 44.5373C72.717 43.4993 73.4617 42.7046 74.4124 42.1532C75.3947 41.5694 76.5197 41.2774 77.7873 41.2774C79.0549 41.2774 80.1641 41.5694 81.1147 42.1532Z" fill="#1C1C1C"/>
<defs>
<linearGradient id="paint0_linear_3171_12674" x1="-36.5519" y1="42.2023" x2="-27.058" y2="110.599" gradientUnits="userSpaceOnUse">
<stop stop-color="#D147F3"/>
<stop offset="0.447917" stop-color="#6347F3"/>
</linearGradient>
</defs>
</svg>
