<svg width="240" height="91" viewBox="0 0 240 91" fill="none" xmlns="http://www.w3.org/2000/svg">
<path d="M35.2111 39.8613C32.2026 39.8613 29.2617 40.7744 26.7603 42.4852C24.2588 44.196 22.3092 46.6276 21.1579 49.4725C20.0066 52.3174 19.7054 55.4479 20.2923 58.4681C20.8792 61.4882 22.3279 64.2624 24.4552 66.4398C26.5825 68.6172 29.2929 70.1001 32.2435 70.7008C35.1942 71.3016 38.2526 70.9933 41.0321 69.8148C43.8116 68.6364 46.1872 66.6409 47.8586 64.0805C49.53 61.5201 50.4221 58.51 50.4221 55.4306H42.8166C42.8166 56.9703 42.3706 58.4754 41.5348 59.7556C40.6991 61.0358 39.5113 62.0335 38.1216 62.6227C36.7319 63.212 35.2026 63.3661 33.7273 63.0657C32.252 62.7654 30.8968 62.0239 29.8332 60.9352C28.7695 59.8465 28.0451 58.4594 27.7517 56.9494C27.4582 55.4393 27.6088 53.874 28.1845 52.4516C28.7601 51.0291 29.7349 49.8133 30.9857 48.9579C32.2364 48.1025 33.7068 47.646 35.2111 47.646V39.8613Z" fill="url(#paint0_linear_3171_12672)"/>
<path d="M56.7012 56.1014V20H64.1166V56.1014H56.7012Z" fill="white"/>
<path d="M107.462 56.1014L96.7194 29.9255H104.372L111.442 47.747L118.775 29.9255H125.906L115.115 56.1014H107.462Z" fill="white"/>
<path d="M158.223 56.1014V20H165.638V56.1014H158.223Z" fill="white"/>
<path fill-rule="evenodd" clip-rule="evenodd" d="M140.927 56.4907C138.012 56.4907 135.445 55.9068 133.226 54.7391C131.04 53.5714 129.344 51.9821 128.14 49.971C126.936 47.9275 126.334 45.6083 126.334 43.0135C126.334 40.3861 126.92 38.0669 128.093 36.0559C129.297 34.0124 130.929 32.423 132.989 31.2878C135.049 30.1201 137.378 29.5362 139.976 29.5362C142.48 29.5362 144.73 30.0876 146.726 31.1905C148.754 32.2609 150.355 33.8178 151.527 35.8613C152.7 37.8723 153.286 40.2888 153.286 43.1108C153.286 43.4027 153.27 43.7433 153.238 44.1325C153.207 44.4893 153.175 44.8299 153.143 45.1542H133.794C133.943 45.8511 134.182 46.4998 134.51 47.1004C135.144 48.1708 136.015 48.9979 137.124 49.5818C138.265 50.1332 139.596 50.4089 141.117 50.4089C142.48 50.4089 143.668 50.1981 144.682 49.7764C145.728 49.3547 146.679 48.7222 147.534 47.8789L151.48 52.2578C150.307 53.6201 148.834 54.6743 147.059 55.4203C145.284 56.1339 143.24 56.4907 140.927 56.4907ZM143.351 36.1532C144.302 36.7046 145.047 37.4831 145.585 38.4886C145.943 39.156 146.182 39.9021 146.302 40.7267H133.708C133.832 39.9159 134.067 39.1861 134.415 38.5373C134.953 37.4993 135.698 36.7046 136.649 36.1532C137.631 35.5694 138.756 35.2774 140.024 35.2774C141.291 35.2774 142.401 35.5694 143.351 36.1532Z" fill="white"/>
<path d="M184.881 56.4907C181.871 56.4907 179.526 55.7122 177.846 54.1553C176.167 52.5659 175.327 50.2143 175.327 47.1004V36.3478H171.381V30.5093H175.327V24.1356H182.742V30.5093H189.112V36.3478H182.742V47.0031C182.742 48.1059 183.027 48.9655 183.598 49.5818C184.168 50.1656 184.945 50.4576 185.927 50.4576C187.1 50.4576 188.098 50.1332 188.922 49.4845L190.918 54.8364C190.158 55.3878 189.239 55.8095 188.161 56.1014C187.115 56.3609 186.022 56.4907 184.881 56.4907Z" fill="white"/>
<path d="M197.849 65.9296C196.518 65.9296 195.203 65.7188 193.904 65.2971C192.604 64.8754 191.543 64.2916 190.719 63.5455L193.428 58.1449C193.999 58.6639 194.648 59.0694 195.377 59.3613C196.138 59.6532 196.882 59.7992 197.611 59.7992C198.657 59.7992 199.481 59.5397 200.083 59.0207C200.717 58.5342 201.287 57.707 201.794 56.5393L201.885 56.32L190.814 29.9255H198.467L205.646 47.7026L212.87 29.9255H220L208.449 57.707C207.625 59.8154 206.674 61.4696 205.597 62.6698C204.551 63.8699 203.379 64.7132 202.079 65.1998C200.812 65.6863 199.402 65.9296 197.849 65.9296Z" fill="white"/>
<path fill-rule="evenodd" clip-rule="evenodd" d="M83.6905 56.4907C80.775 56.4907 78.2081 55.9068 75.9899 54.7391C73.8033 53.5714 72.1079 51.9821 70.9037 49.971C69.6995 47.9275 69.0974 45.6083 69.0974 43.0135C69.0974 40.3861 69.6836 38.0669 70.8561 36.0559C72.0603 34.0124 73.6924 32.423 75.7522 31.2878C77.812 30.1201 80.1412 29.5362 82.7398 29.5362C85.2433 29.5362 87.4932 30.0876 89.4897 31.1905C91.5178 32.2609 93.1182 33.8178 94.2907 35.8613C95.4632 37.8723 96.0495 40.2888 96.0495 43.1108C96.0495 43.4027 96.0336 43.7433 96.0019 44.1325C95.9703 44.4893 95.9386 44.8299 95.9069 45.1542H76.5574C76.7068 45.8511 76.9454 46.4998 77.2733 47.1004C77.9071 48.1708 78.7786 48.9979 79.8877 49.5818C81.0285 50.1332 82.3595 50.4089 83.8806 50.4089C85.2433 50.4089 86.4316 50.1981 87.4457 49.7764C88.4915 49.3547 89.4422 48.7222 90.2978 47.8789L94.2431 52.2578C93.0706 53.6201 91.5971 54.6743 89.8224 55.4203C88.0478 56.1339 86.0038 56.4907 83.6905 56.4907ZM86.1147 36.1532C87.0654 36.7046 87.8101 37.4831 88.3489 38.4886C88.7065 39.156 88.9454 39.9021 89.0656 40.7267H76.4719C76.5952 39.9159 76.8306 39.1861 77.1782 38.5373C77.717 37.4993 78.4617 36.7046 79.4124 36.1532C80.3947 35.5694 81.5197 35.2774 82.7873 35.2774C84.0549 35.2774 85.1641 35.5694 86.1147 36.1532Z" fill="white"/>
<defs>
<linearGradient id="paint0_linear_3171_12672" x1="-31.5519" y1="36.2023" x2="-22.058" y2="104.599" gradientUnits="userSpaceOnUse">
<stop stop-color="#D147F3"/>
<stop offset="0.447917" stop-color="#6347F3"/>
</linearGradient>
</defs>
</svg>
