<svg width="45" height="45" viewBox="0 0 45 45" fill="none" xmlns="http://www.w3.org/2000/svg">
<rect width="45" height="45" rx="10" fill="#6D51FF"/>
<path d="M22.5033 15.0879C18.4811 15.0879 15.1484 18.3631 15.1484 22.4427C15.1484 26.5224 18.4236 29.7976 22.5033 29.7976C26.5829 29.7976 29.8581 26.4649 29.8581 22.4427C29.8581 18.4206 26.5255 15.0879 22.5033 15.0879ZM22.5033 27.1544C19.9176 27.1544 17.7916 25.0284 17.7916 22.4427C17.7916 19.857 19.9176 17.731 22.5033 17.731C25.089 17.731 27.215 19.857 27.215 22.4427C27.215 25.0284 25.089 27.1544 22.5033 27.1544Z" fill="white"/>
<path d="M30.1429 16.5817C31.0632 16.5817 31.8092 15.8356 31.8092 14.9154C31.8092 13.9951 31.0632 13.249 30.1429 13.249C29.2226 13.249 28.4766 13.9951 28.4766 14.9154C28.4766 15.8356 29.2226 16.5817 30.1429 16.5817Z" fill="white"/>
<path d="M34.4516 10.6058C32.9577 9.05444 30.8317 8.25 28.4183 8.25H16.5817C11.5827 8.25 8.25 11.5827 8.25 16.5817V28.3609C8.25 30.8317 9.05444 32.9577 10.6633 34.5091C12.2147 36.003 14.2833 36.75 16.6391 36.75H28.3609C30.8317 36.75 32.9002 35.9456 34.3942 34.5091C35.9456 33.0151 36.75 30.8891 36.75 28.4183V16.5817C36.75 14.1683 35.9456 12.0998 34.4516 10.6058ZM34.2218 28.4183C34.2218 30.1996 33.5897 31.6361 32.5554 32.6129C31.5212 33.5897 30.0847 34.1069 28.3609 34.1069H16.6391C14.9153 34.1069 13.4788 33.5897 12.4446 32.6129C11.4103 31.5786 10.8931 30.1421 10.8931 28.3609V16.5817C10.8931 14.8579 11.4103 13.4214 12.4446 12.3871C13.4214 11.4103 14.9153 10.8931 16.6391 10.8931H28.4758C30.1996 10.8931 31.6361 11.4103 32.6704 12.4446C33.6472 13.4788 34.2218 14.9153 34.2218 16.5817V28.4183Z" fill="white"/>
</svg>
