<svg width="45" height="45" viewBox="0 0 45 45" fill="none" xmlns="http://www.w3.org/2000/svg">
<rect width="45" height="45" rx="10" fill="#6D51FF"/>
<path d="M8.71144 17.7133H14.6223V36.75H8.71144V17.7133ZM11.6779 8.25C13.5676 8.25 15.1057 9.79054 15.1057 11.6832C15.1057 13.5759 13.5676 15.1164 11.6779 15.1164C9.77716 15.1164 8.25 13.5759 8.25 11.6832C8.25 9.79054 9.77716 8.25 11.6779 8.25Z" fill="white"/>
<path d="M18.3359 17.7141H23.9941V20.322H24.071C24.8621 18.8255 26.7847 17.252 29.6633 17.252C35.6401 17.252 36.7497 21.1913 36.7497 26.3191V36.7508H30.8498V27.4965C30.8498 25.2848 30.8169 22.4458 27.7845 22.4458C24.7082 22.4458 24.2468 24.8556 24.2468 27.3315V36.7508H18.3469L18.3359 17.7141Z" fill="white"/>
</svg>
