<svg width="160" height="50" viewBox="0 0 160 50" fill="none" xmlns="http://www.w3.org/2000/svg">
<path d="M12.1689 20.9669C9.76209 20.9669 7.40937 21.701 5.40821 23.0763C3.40705 24.4517 1.84734 26.4065 0.926304 28.6936C0.00527258 30.9807 -0.235711 33.4973 0.233827 35.9253C0.703365 38.3533 1.86234 40.5835 3.56418 42.334C5.26603 44.0845 7.43431 45.2765 9.79484 45.7595C12.1554 46.2424 14.6021 45.9946 16.8257 45.0472C19.0492 44.0999 20.9498 42.4956 22.2869 40.4373C23.624 38.3789 24.3377 35.959 24.3377 33.4835H18.2533C18.2533 34.7212 17.8964 35.9312 17.2279 36.9604C16.5593 37.9895 15.6091 38.7917 14.4973 39.2653C13.3855 39.739 12.1621 39.8629 10.9818 39.6215C9.80159 39.38 8.71744 38.784 7.86652 37.9087C7.0156 37.0335 6.43611 35.9184 6.20134 34.7044C5.96658 33.4904 6.08707 32.2321 6.54758 31.0885C7.0081 29.945 7.78795 28.9676 8.78853 28.2799C9.78911 27.5922 10.9655 27.2252 12.1689 27.2252V20.9669Z" fill="url(#paint0_linear_3176_12780)"/>
<path d="M29.361 34.0227V5H35.2933V34.0227H29.361Z" fill="black"/>
<path d="M69.9698 34.0227L61.3755 12.9793H67.498L73.1539 27.3064L79.0204 12.9793H84.7245L76.0922 34.0227H69.9698Z" fill="black"/>
<path d="M110.578 34.0227V5H116.511V34.0227H110.578Z" fill="black"/>
<path fill-rule="evenodd" clip-rule="evenodd" d="M96.7416 34.3356C94.4092 34.3356 92.3557 33.8663 90.5811 32.9275C88.8318 31.9888 87.4755 30.7111 86.5121 29.0943C85.5488 27.4515 85.0671 25.5871 85.0671 23.501C85.0671 21.3888 85.5361 19.5244 86.4741 17.9077C87.4375 16.2649 88.7431 14.9872 90.3909 14.0745C92.0388 13.1358 93.9022 12.6664 95.981 12.6664C97.9838 12.6664 99.7838 13.1097 101.381 13.9963C103.003 14.8568 104.284 16.1084 105.222 17.7512C106.16 19.3679 106.629 21.3106 106.629 23.5792C106.629 23.8139 106.616 24.0877 106.591 24.4006C106.565 24.6875 106.54 24.9613 106.515 25.222H91.0351C91.1546 25.7822 91.3455 26.3038 91.6078 26.7866C92.1149 27.6471 92.812 28.3121 93.6993 28.7814C94.612 29.2247 95.6768 29.4464 96.8937 29.4464C97.9838 29.4464 98.9345 29.2769 99.7457 28.9379C100.582 28.5989 101.343 28.0904 102.027 27.4124L105.184 30.9327C104.246 32.0279 103.067 32.8754 101.647 33.4751C100.227 34.0488 98.5922 34.3356 96.7416 34.3356ZM98.681 17.9859C99.4415 18.4292 100.037 19.055 100.468 19.8634C100.754 20.4 100.945 20.9997 101.042 21.6626H90.9667C91.0653 21.0108 91.2537 20.4241 91.5318 19.9025C91.9627 19.0681 92.5585 18.4292 93.3191 17.9859C94.105 17.5165 95.005 17.2819 96.019 17.2819C97.0331 17.2819 97.9204 17.5165 98.681 17.9859Z" fill="black"/>
<path d="M131.905 34.3356C129.497 34.3356 127.621 33.7098 126.277 32.4582C124.933 31.1804 124.261 29.2899 124.261 26.7866V18.1424H121.105V13.4487H124.261V8.32471H130.194V13.4487H135.289V18.1424H130.194V26.7084C130.194 27.595 130.422 28.286 130.878 28.7814C131.335 29.2508 131.956 29.4855 132.742 29.4855C133.68 29.4855 134.478 29.2247 135.137 28.7032L136.734 33.0058C136.126 33.4491 135.391 33.788 134.529 34.0227C133.692 34.2313 132.818 34.3356 131.905 34.3356Z" fill="black"/>
<path d="M142.279 41.9238C141.214 41.9238 140.162 41.7543 139.123 41.4153C138.083 41.0763 137.234 40.6069 136.575 40.0072L138.743 35.6655C139.199 36.0827 139.719 36.4087 140.302 36.6434C140.91 36.8781 141.506 36.9954 142.089 36.9954C142.926 36.9954 143.585 36.7868 144.066 36.3696C144.573 35.9784 145.03 35.3135 145.435 34.3748L145.508 34.1984L136.651 12.9793H142.773L148.516 27.2707L154.296 12.9793H160L150.759 35.3135C150.1 37.0084 149.34 38.3383 148.478 39.3031C147.641 40.268 146.703 40.9459 145.664 41.3371C144.649 41.7282 143.521 41.9238 142.279 41.9238Z" fill="black"/>
<path fill-rule="evenodd" clip-rule="evenodd" d="M50.9524 34.3356C48.62 34.3356 46.5665 33.8663 44.7919 32.9275C43.0426 31.9888 41.6863 30.7111 40.7229 29.0943C39.7596 27.4515 39.2779 25.5871 39.2779 23.501C39.2779 21.3888 39.7469 19.5244 40.6849 17.9077C41.6483 16.2649 42.9539 14.9872 44.6018 14.0745C46.2496 13.1358 48.113 12.6664 50.1918 12.6664C52.1946 12.6664 53.9946 13.1097 55.5918 13.9963C57.2143 14.8568 58.4945 16.1084 59.4325 17.7512C60.3706 19.3679 60.8396 21.3106 60.8396 23.5792C60.8396 23.8139 60.8269 24.0877 60.8016 24.4006C60.7762 24.6875 60.7508 24.9613 60.7255 25.222H45.2459C45.3654 25.7822 45.5563 26.3038 45.8186 26.7866C46.3257 27.6471 47.0229 28.3121 47.9102 28.7814C48.8228 29.2247 49.8876 29.4464 51.1045 29.4464C52.1946 29.4464 53.1453 29.2769 53.9566 28.9379C54.7932 28.5989 55.5537 28.0904 56.2382 27.4124L59.3945 30.9327C58.4565 32.0279 57.2776 32.8754 55.8579 33.4751C54.4383 34.0488 52.8031 34.3356 50.9524 34.3356ZM52.8918 17.9859C53.6523 18.4292 54.2481 19.055 54.6791 19.8634C54.9652 20.4 55.1563 20.9997 55.2525 21.6626H45.1775C45.2761 21.0108 45.4645 20.4241 45.7426 19.9025C46.1736 19.0681 46.7693 18.4292 47.5299 17.9859C48.3158 17.5165 49.2158 17.2819 50.2299 17.2819C51.2439 17.2819 52.1312 17.5165 52.8918 17.9859Z" fill="black"/>
<defs>
<linearGradient id="paint0_linear_3176_12780" x1="-41.2415" y1="18.0254" x2="-33.5732" y2="73.0008" gradientUnits="userSpaceOnUse">
<stop stop-color="#D147F3"/>
<stop offset="0.447917" stop-color="#6347F3"/>
</linearGradient>
</defs>
</svg>
