<svg width="240" height="61" viewBox="0 0 240 61" fill="none" xmlns="http://www.w3.org/2000/svg">
<path d="M18.2533 23.7557C14.6431 23.7557 11.114 24.8478 8.11231 26.8941C5.11057 28.9403 2.771 31.8487 1.38946 35.2514C0.00790904 38.6542 -0.353567 42.3985 0.35074 46.0108C1.05505 49.6232 2.7935 52.9413 5.34627 55.5457C7.89904 58.15 11.1515 59.9236 14.6923 60.6422C18.233 61.3607 21.9032 60.9919 25.2385 59.5825C28.5739 58.173 31.4246 55.7861 33.4303 52.7237C35.436 49.6614 36.5066 46.0609 36.5066 42.3778H27.3799C27.3799 44.2194 26.8447 46.0196 25.8418 47.5508C24.839 49.082 23.4136 50.2754 21.7459 50.9801C20.0782 51.6849 18.2432 51.8693 16.4728 51.51C14.7024 51.1507 13.0762 50.2639 11.7998 48.9618C10.5234 47.6596 9.65417 46.0005 9.30202 44.1943C8.94986 42.3881 9.1306 40.516 9.82137 38.8146C10.5121 37.1132 11.6819 35.6591 13.1828 34.6359C14.6837 33.6128 16.4482 33.0667 18.2533 33.0667V23.7557Z" fill="url(#paint0_linear_2523_12534)"/>
<path d="M44.0415 43.1802V0H52.9399V43.1802H44.0415Z" fill="white"/>
<path d="M104.955 43.1802L92.0633 11.8716H101.247L109.731 33.1876L118.531 11.8716H127.087L114.138 43.1802H104.955Z" fill="white"/>
<path d="M165.867 43.1802V0H174.766V43.1802H165.867Z" fill="white"/>
<path fill-rule="evenodd" clip-rule="evenodd" d="M145.112 43.6457C141.614 43.6457 138.534 42.9474 135.872 41.5507C133.248 40.1541 131.213 38.253 129.768 35.8477C128.323 33.4035 127.601 30.6296 127.601 27.5259C127.601 24.3834 128.304 21.6095 129.711 19.2041C131.156 16.76 133.115 14.8589 135.586 13.5011C138.058 12.1044 140.853 11.4061 143.972 11.4061C146.976 11.4061 149.676 12.0656 152.071 13.3847C154.505 14.665 156.426 16.5272 157.833 18.9713C159.24 21.3767 159.943 24.267 159.943 27.6423C159.943 27.9914 159.924 28.3988 159.886 28.8644C159.848 29.2911 159.81 29.6985 159.772 30.0864H136.553C136.732 30.9199 137.018 31.6958 137.412 32.4142C138.172 33.6945 139.218 34.6838 140.549 35.3821C141.918 36.0417 143.515 36.3714 145.34 36.3714C146.976 36.3714 148.402 36.1192 149.619 35.6149C150.874 35.1105 152.014 34.354 153.041 33.3453L157.776 38.5828C156.369 40.2122 154.6 41.4731 152.471 42.3654C150.341 43.219 147.888 43.6457 145.112 43.6457ZM148.021 19.3205C149.162 19.98 150.056 20.9111 150.702 22.1138C151.132 22.9121 151.418 23.8044 151.562 24.7908H136.45C136.598 23.8209 136.881 22.948 137.298 22.172C137.944 20.9305 138.838 19.98 139.979 19.3205C141.157 18.6222 142.507 18.273 144.029 18.273C145.55 18.273 146.881 18.6222 148.021 19.3205Z" fill="white"/>
<path d="M197.857 43.6457C194.245 43.6457 191.431 42.7146 189.415 40.8524C187.4 38.9514 186.392 36.1386 186.392 32.4142V19.5533H181.658V12.57H186.392V4.94652H195.291V12.57H202.934V19.5533H195.291V32.2978C195.291 33.6169 195.633 34.645 196.317 35.3821C197.002 36.0805 197.934 36.4296 199.112 36.4296C200.519 36.4296 201.717 36.0417 202.706 35.2657L205.102 41.6671C204.189 42.3266 203.086 42.831 201.793 43.1802C200.538 43.4905 199.226 43.6457 197.857 43.6457Z" fill="white"/>
<path d="M213.419 54.9354C211.821 54.9354 210.243 54.6832 208.684 54.1789C207.125 53.6745 205.851 52.9762 204.862 52.0839L208.114 45.6243C208.798 46.2451 209.578 46.73 210.452 47.0792C211.365 47.4283 212.259 47.6029 213.133 47.6029C214.388 47.6029 215.377 47.2925 216.1 46.6718C216.86 46.0899 217.545 45.1006 218.153 43.7039L218.262 43.4416L204.977 11.8716H214.16L222.775 33.1345L231.444 11.8716H240L226.139 45.1006C225.15 47.6223 224.009 49.6009 222.716 51.0364C221.462 52.4718 220.054 53.4805 218.495 54.0625C216.974 54.6444 215.282 54.9354 213.419 54.9354Z" fill="white"/>
<path fill-rule="evenodd" clip-rule="evenodd" d="M76.4286 43.6457C72.93 43.6457 69.8498 42.9474 67.1878 41.5507C64.5639 40.1541 62.5295 38.253 61.0844 35.8477C59.6394 33.4035 58.9168 30.6296 58.9168 27.5259C58.9168 24.3834 59.6203 21.6095 61.0274 19.2041C62.4724 16.76 64.4308 14.8589 66.9026 13.5011C69.3744 12.1044 72.1695 11.4061 75.2877 11.4061C78.2919 11.4061 80.9919 12.0656 83.3876 13.3847C85.8214 14.665 87.7418 16.5272 89.1488 18.9713C90.5558 21.3767 91.2594 24.267 91.2594 27.6423C91.2594 27.9914 91.2404 28.3988 91.2023 28.8644C91.1643 29.2911 91.1263 29.6985 91.0882 30.0864H67.8689C68.0481 30.9199 68.3345 31.6958 68.728 32.4142C69.4885 33.6945 70.5343 34.6838 71.8652 35.3821C73.2342 36.0417 74.8314 36.3714 76.6567 36.3714C78.2919 36.3714 79.718 36.1192 80.9348 35.6149C82.1898 35.1105 83.3306 34.354 84.3573 33.3453L89.0918 38.5828C87.6848 40.2122 85.9165 41.4731 83.7869 42.3654C81.6574 43.219 79.2046 43.6457 76.4286 43.6457ZM79.3377 19.3205C80.4785 19.98 81.3722 20.9111 82.0186 22.1138C82.4477 22.9121 82.7344 23.8044 82.8787 24.7908H67.7662C67.9142 23.8209 68.1968 22.948 68.6139 22.172C69.2604 20.9305 70.154 19.98 71.2948 19.3205C72.4737 18.6222 73.8237 18.273 75.3448 18.273C76.8659 18.273 78.1969 18.6222 79.3377 19.3205Z" fill="white"/>
<defs>
<linearGradient id="paint0_linear_2523_12534" x1="-61.8623" y1="19.3792" x2="-50.5425" y2="101.197" gradientUnits="userSpaceOnUse">
<stop stop-color="#D147F3"/>
<stop offset="0.447917" stop-color="#6347F3"/>
</linearGradient>
</defs>
</svg>
