<svg width="55" height="42" viewBox="0 0 55 42" fill="none" xmlns="http://www.w3.org/2000/svg">
<path opacity="0.25" d="M50 0C52.7614 0 55 2.23857 55 5V14.5213C55 19.8787 54.0196 24.7661 52.0588 29.1836C50.53 32.7012 48.1072 36.2759 44.7903 39.9078C43.1152 41.742 40.3116 41.8667 38.3529 40.3389L37.6442 39.7862C35.2414 37.9122 35.0968 34.3667 37.0233 32.0058C39.6292 28.8121 41.3077 25.7096 42.0588 22.6984H36.1765C33.415 22.6984 31.1765 20.4598 31.1765 17.6984V5C31.1765 2.23857 33.415 0 36.1765 0H50ZM18.8235 0C21.5849 0 23.8235 2.23857 23.8235 5V14.5213C23.8235 19.8787 22.8431 24.7661 20.8824 29.1836C19.3535 32.7012 16.9307 36.2759 13.6139 39.9078C11.9387 41.742 9.13516 41.8667 7.1764 40.3389L6.46772 39.7862C4.06496 37.9122 3.92035 34.3667 5.8468 32.0058C8.45271 28.8121 10.1312 25.7096 10.8823 22.6984H5C2.23857 22.6984 0 20.4598 0 17.6984V5C0 2.23857 2.23857 0 5 0H18.8235Z" fill="#3217BA"/>
</svg>
