<svg width="20" height="18" viewBox="0 0 20 18" fill="none" xmlns="http://www.w3.org/2000/svg">
<path fill-rule="evenodd" clip-rule="evenodd" d="M10.2088 0.224239C10.0775 0.360288 10.0041 0.541988 10.0041 0.731069V2.97947V5.52254L9.19118 5.58156C7.06571 5.736 5.56932 6.10295 4.18308 6.80971C2.46674 7.68474 1.33538 9.04788 0.715468 10.9877C0.248384 12.4494 0.00291878 14.3558 8.39221e-05 16.5442C-0.00116675 17.5123 0.00908901 17.5744 0.203443 17.7758C0.419309 17.9996 0.735395 18.0479 1.00512 17.8982C1.09409 17.849 1.28377 17.567 1.42685 17.2717C2.31908 15.4291 3.14852 14.4275 4.3761 13.7102C5.43166 13.0933 7.24831 12.6336 9.14949 12.5022L10.0041 12.4431V15.0033V17.2689C10.0041 17.458 10.0775 17.6397 10.2088 17.7758C10.5949 18.176 10.8241 18.0852 11.8201 17.1372C17.398 11.828 19.8976 9.39668 19.963 9.2164C20.0123 9.08089 20.0123 8.91911 19.963 8.7836C19.8976 8.60332 17.398 6.172 11.8201 0.862814C10.8241 -0.0851526 10.5949 -0.175983 10.2088 0.224239ZM15.0032 5.79978C16.8165 7.53324 18.3002 8.9739 18.3002 9.0013C18.3002 9.0286 16.7431 10.5415 14.84 12.3633L11.3799 15.6757L11.3382 13.54L11.2965 11.4043L11.088 11.2276C10.8916 11.0612 10.8077 11.0542 9.62892 11.1062C5.94994 11.2684 3.60227 12.1323 1.97181 13.9237C1.3348 14.6237 1.34747 14.644 1.54758 13.2469C2.12064 9.24665 4.17899 7.44647 8.67007 7.0179C9.19744 6.9676 9.92141 6.92629 10.2788 6.92612C10.8576 6.92586 10.9513 6.90261 11.1335 6.7137L11.3382 6.50162V4.41011V2.31869L11.5222 2.48332C11.6233 2.57389 13.1898 4.06623 15.0032 5.79978Z" fill="#3217BA"/>
</svg>
