<svg width="45" height="45" viewBox="0 0 45 45" fill="none" xmlns="http://www.w3.org/2000/svg">
<rect width="45" height="45" rx="10" fill="#6D51FF"/>
<path fill-rule="evenodd" clip-rule="evenodd" d="M26.5113 11.3752C24.9007 11.7665 23.4085 12.9153 22.6726 14.3306C22.1513 15.3331 21.982 16.1269 22.0448 17.2739L22.095 18.1887L21.1797 18.1198C19.5436 17.9966 17.5808 17.4706 15.7974 16.6772C14.1222 15.9318 12.608 14.9042 11.1505 13.5234C10.2444 12.665 9.82681 12.3365 9.76302 12.4316C9.2271 13.2298 8.95528 15.1579 9.21191 16.3422C9.4273 17.3365 10.048 18.4001 10.8653 19.1759L11.5893 19.8629L10.97 19.7698C10.6293 19.7186 10.0667 19.5749 9.71962 19.4505C9.37246 19.3259 9.05839 19.2529 9.02168 19.2882C8.88583 19.4184 9.32057 21.099 9.66172 21.7629C10.3329 23.0688 11.5123 24.07 12.9861 24.585L13.6789 24.827L13.2893 24.9238C13.0751 24.9771 12.5047 25.0035 12.0217 24.9825C11.5387 24.9615 11.1436 24.9827 11.1436 25.0296C11.1436 25.2906 11.8895 26.4636 12.3873 26.9857C13.3518 27.9969 14.4668 28.5729 15.9466 28.8244L16.6141 28.9377L15.6672 29.5179C13.8193 30.6502 12.0001 31.1773 9.62411 31.2689C7.79359 31.3395 7.7937 31.3239 9.61402 32.1648C10.9104 32.7639 12.445 33.2527 13.9195 33.5364C15.514 33.8433 18.7219 33.8153 20.4344 33.4794C26.4605 32.2979 31.0114 28.3758 33.0086 22.6427C33.5528 21.0802 33.7934 19.8257 33.8833 18.0798C33.9489 16.8055 33.9636 16.7439 34.2434 16.5682C34.9012 16.1552 36.75 14.2549 36.75 13.9917C36.75 13.9559 36.5589 13.9971 36.3251 14.0833C35.761 14.2916 34.7805 14.5518 34.1151 14.6699L33.5765 14.7657L34.3004 14.1299C35.0396 13.4807 35.5797 12.7767 35.8975 12.0475L36.0757 11.6387L35.39 11.9704C34.5706 12.3669 32.805 12.9476 32.4192 12.9476C32.2679 12.9476 32.0235 12.8244 31.8759 12.674C31.4712 12.2611 30.6359 11.7806 29.886 11.5294C28.9969 11.2314 27.4026 11.1586 26.5113 11.3752Z" fill="white"/>
</svg>
